<svg width="25" height="25" viewBox="0 0 25 25" fill="none" xmlns="http://www.w3.org/2000/svg">
<path fill-rule="evenodd" clip-rule="evenodd" d="M20.7036 22.5H4.29763C3.41514 22.5 2.76265 21.6287 3.09639 20.8275C4.64136 17.1225 8.2713 15 12.5 15C16.7299 15 20.3598 17.1225 21.9048 20.8275C22.2386 21.6287 21.5861 22.5 20.7036 22.5ZM7.39632 7.49999C7.39632 4.74248 9.68628 2.49998 12.5 2.49998C15.3149 2.49998 17.6036 4.74248 17.6036 7.49999C17.6036 10.2575 15.3149 12.5 12.5 12.5C9.68628 12.5 7.39632 10.2575 7.39632 7.49999ZM24.9448 22.045C24.0173 17.8462 21.1148 14.7475 17.2961 13.3412C19.3199 11.745 20.4998 9.16367 20.0661 6.33742C19.5636 3.05867 16.7787 0.434971 13.4187 0.0524711C8.7788 -0.476279 4.84386 3.06123 4.84386 7.49999C4.84386 9.86249 5.96135 11.9675 7.70507 13.3412C3.88388 14.7475 0.983929 17.8462 0.0551951 22.045C-0.282299 23.5712 0.973932 25 2.56765 25H22.4323C24.0273 25 25.2823 23.5712 24.9448 22.045Z" fill="#AAA8A8"/>
</svg>
