<svg width="34" height="34" viewBox="0 0 34 34" fill="none" xmlns="http://www.w3.org/2000/svg">
<g clip-path="url(#clip0_1_4862)">
<path d="M8.61663 29.6617C7.04523 29.6123 6.20781 28.3627 6.35083 26.8778C6.50014 25.3325 7.16036 23.9785 7.86196 22.631C8.07244 22.2227 8.3225 22.0972 8.76955 22.1018C11.1874 22.1265 13.6061 22.1137 16.0239 22.1137H16.3945C16.1813 23.7194 16.3945 24.5507 17.2166 25.2263C17.2535 24.677 17.2913 24.1644 17.321 23.649C17.4253 21.8485 17.529 20.0481 17.6322 18.2477C17.6592 17.79 17.482 17.5657 17.0322 17.5154C16.1831 17.4238 15.334 17.3323 14.4867 17.2334C13.5782 17.1281 12.9108 16.2264 13.0952 15.3109C13.6007 12.8038 14.1173 10.297 14.645 7.79042C14.8726 6.71292 15.7981 6.08308 16.8793 6.21674C17.8112 6.33117 18.5155 7.20361 18.5398 8.24449C18.5501 8.40833 18.6133 8.56411 18.7197 8.68757C19.6677 9.75683 20.9144 10.3208 22.2106 10.8032C22.7877 11.0234 23.4016 11.1266 24.0176 11.1071C24.8946 11.0788 25.7725 11.0989 26.6495 11.1007C27.8369 11.1007 28.4755 11.7553 28.4782 12.9692C28.4782 13.3116 28.4872 13.6549 28.4602 13.9963C28.4298 14.3869 28.2589 14.7523 27.9803 15.0226C27.7016 15.2929 27.3347 15.449 26.95 15.4611C26.5902 15.4748 26.2304 15.4611 25.8436 15.4611C25.8843 16.357 26.0716 17.2397 26.3977 18.0729C26.7497 19.0293 27.3653 19.8621 28.1706 20.4714C29.196 21.2468 29.5549 22.3408 29.3633 23.6215C29.3489 23.7194 29.3372 23.8174 29.3327 23.854C29.9417 23.984 30.547 24.0325 31.0903 24.2431C32.7211 24.8757 33.6376 26.1234 33.9066 27.8647C33.975 28.3068 33.885 28.4524 33.4694 28.6712C33.7294 29.7752 33.5513 30.8097 32.8677 31.7316C32.3679 32.4047 31.6443 32.8695 30.8321 33.0388C29.4272 33.362 27.2828 32.6864 26.69 30.2384C26.672 30.2384 26.645 30.2384 26.6351 30.2503C26.135 30.8344 25.7357 30.7694 25.4541 30.0535C25.3795 29.8631 25.3237 29.6663 25.2742 29.5262C24.9612 29.5637 24.6599 29.6306 24.3576 29.6315C21.5351 29.64 18.7125 29.64 15.8899 29.6315C15.6317 29.6315 15.5238 29.6846 15.4842 29.973C15.2584 31.6162 13.8004 32.8658 12.1138 32.8924C10.4525 32.9189 8.95754 31.6748 8.6832 30.038C8.66521 29.9199 8.64092 29.7972 8.61663 29.6617ZM22.5164 25.7966V13.8114C20.7837 13.6083 19.1395 12.9232 17.7644 11.8313C17.6268 12.4465 17.4892 12.9957 17.3839 13.5505C17.3138 13.9167 17.4325 14.0998 17.7887 14.2325C18.6207 14.5502 19.4491 14.8605 20.2758 15.18C21.0655 15.4885 21.4451 16.0955 21.3749 16.9359C21.3165 17.6408 21.2373 18.3439 21.1636 19.0469C20.9927 20.6948 20.8212 22.3395 20.6491 23.9813C20.587 24.5791 20.5303 25.1769 20.4692 25.7966H22.5164ZM31.084 28.2061C30.0354 28.1866 29.0014 28.4575 28.0923 28.9898C27.8521 29.1252 27.7325 29.3102 27.7424 29.5949C27.7883 30.5827 28.2326 31.3242 29.1105 31.7444C30.0028 32.171 30.8726 32.0547 31.6291 31.4166C32.3856 30.7786 32.6293 29.9519 32.4215 28.9907C32.2812 28.3379 32.1355 28.2272 31.4861 28.207C31.3539 28.2025 31.2189 28.2061 31.084 28.2061ZM9.76618 29.6599C9.75268 30.8143 10.8932 31.813 12.1732 31.7865C13.3425 31.7618 14.448 30.7099 14.3949 29.6599H9.76618Z" fill="#FF7A00"/>
<path d="M6.397 7.85741C7.6338 7.85741 8.87149 7.85741 10.1083 7.85741C11.0977 7.85741 11.784 8.54858 11.7849 9.55284C11.7849 11.529 11.7849 13.5049 11.7849 15.4805C11.7849 16.4875 11.0995 17.1741 10.1074 17.175C7.6224 17.175 5.13712 17.175 2.65154 17.175C1.68369 17.175 0.991089 16.4774 0.991089 15.5015C0.991089 13.5125 0.991089 11.5241 0.991089 9.53637C0.991089 8.55774 1.68459 7.86107 2.65244 7.85832C3.90093 7.85558 5.14851 7.85741 6.397 7.85741Z" fill="#FF7A00"/>
<path d="M16.6365 21.0146H16.2542C13.5558 21.0146 10.8573 21.0146 8.15887 21.021C8.04934 21.0292 7.93966 21.0074 7.84115 20.958C7.74264 20.9086 7.65887 20.8334 7.59848 20.74C7.2037 20.223 6.97169 19.5965 6.93286 18.9429C6.90588 18.3799 7.08308 18.195 7.63356 18.1941C9.47751 18.1941 11.3212 18.1941 13.1645 18.1941C14.0865 18.1941 15.0085 18.1941 15.9304 18.1941C16.4539 18.1941 16.6329 18.3827 16.6347 18.9191C16.6419 19.6021 16.6365 20.285 16.6365 21.0146Z" fill="#FF7A00"/>
<path d="M20.9594 2.92438C20.9607 3.28502 20.8917 3.64236 20.7565 3.97571C20.6213 4.30906 20.4224 4.61181 20.1715 4.86644C19.9205 5.12108 19.6225 5.32254 19.2945 5.45919C18.9666 5.59583 18.6153 5.66494 18.2609 5.66252C17.9061 5.66422 17.5544 5.59434 17.2263 5.45692C16.8982 5.3195 16.6 5.11727 16.3491 4.86191C16.0982 4.60654 15.8995 4.30311 15.7645 3.96914C15.6295 3.63516 15.5608 3.27727 15.5625 2.91614C15.5618 2.5557 15.6311 2.19869 15.7666 1.86566C15.9021 1.53264 16.1009 1.23019 16.3518 0.975753C16.6026 0.721313 16.9004 0.51991 17.2281 0.383149C17.5558 0.246388 17.9068 0.176975 18.2609 0.178908C18.616 0.176229 18.968 0.245407 19.2965 0.38242C19.625 0.519433 19.9235 0.721546 20.1746 0.97701C20.4257 1.23247 20.6243 1.53619 20.7591 1.8705C20.8938 2.20481 20.9619 2.56304 20.9594 2.92438Z" fill="#FF7A00"/>
</g>
<defs>
<clipPath id="clip0_1_4862">
<rect width="32.9383" height="32.9383" fill="white" transform="translate(0.988953 0.181152)"/>
</clipPath>
</defs>
</svg>
