<svg width="24" height="24" viewBox="0 0 24 24" fill="none" xmlns="http://www.w3.org/2000/svg">
<path d="M23.1463 11.1264V12.4827C23.1279 12.6451 23.1087 12.8075 23.091 12.9707C22.8135 15.4612 21.8625 17.658 20.1813 19.5207C18.3986 21.4983 16.19 22.7325 13.5613 23.1979C13.1263 23.2752 12.6849 23.3184 12.2456 23.378H10.8908C10.5033 23.3291 10.1101 23.2943 9.72905 23.2298C7.31115 22.8262 5.20339 21.7863 3.46963 20.0541C0.868637 17.4558 -0.276083 14.2971 0.0560497 10.6405C0.2796 8.18553 1.24051 6.01639 2.88272 4.17284C5.06358 1.72493 7.80793 0.405569 11.0824 0.245969C13.3662 0.135313 15.5137 0.667312 17.4696 1.85899C20.4744 3.6912 22.3181 6.34553 22.9675 9.81275C23.047 10.2469 23.0874 10.6895 23.1463 11.1264ZM9.78724 13.7339C9.33162 13.3169 8.91007 12.9303 8.48781 12.5451C7.84909 11.967 7.22528 11.3804 6.57734 10.8165C6.24166 10.5242 5.83572 10.5001 5.43049 10.6689C5.02526 10.8377 4.81093 11.1591 4.76764 11.591C4.72435 12.023 4.90958 12.3607 5.22113 12.6458C6.46544 13.7746 7.70787 14.9053 8.94839 16.0379C9.55092 16.5869 10.1598 16.5741 10.7403 15.9988C13.131 13.6268 15.5217 11.2546 17.9124 8.8821C17.9834 8.81116 18.0544 8.74023 18.1133 8.6693C18.2221 8.53876 18.3008 8.38585 18.3437 8.22146C18.3866 8.05706 18.3927 7.88522 18.3616 7.71818C18.3305 7.55114 18.263 7.39302 18.1637 7.25507C18.0645 7.11712 17.936 7.00274 17.7875 6.92008C17.2907 6.63635 16.7606 6.73211 16.2972 7.19672C14.1913 9.30061 12.0859 11.405 9.98098 13.5098C9.91782 13.5715 9.86318 13.6453 9.78724 13.7339Z" fill="#4EB664"/>
</svg>
