<svg width="27" height="31" viewBox="0 0 27 31" fill="none" xmlns="http://www.w3.org/2000/svg">
<path d="M19.066 8.13834C19.066 8.42294 19.0456 8.70754 19.0082 8.98891C19.0252 8.87572 19.0422 8.75929 19.0558 8.6461C18.9742 9.20883 18.8178 9.75539 18.5901 10.2793C18.6343 10.1758 18.6819 10.0723 18.726 9.96884C18.4983 10.4798 18.2059 10.9585 17.849 11.3983C17.9204 11.311 17.9918 11.2237 18.0632 11.1363C17.7096 11.5697 17.2983 11.961 16.8428 12.2974C16.9346 12.2295 17.0264 12.1616 17.1181 12.0936C16.6558 12.43 16.1527 12.7113 15.6156 12.928C15.7244 12.886 15.8332 12.8407 15.9419 12.7987C15.3912 13.0153 14.8167 13.1641 14.2253 13.2417C14.3442 13.2256 14.4666 13.2094 14.5856 13.1965C13.9907 13.2708 13.3924 13.2708 12.7975 13.1965C12.9165 13.2126 13.0389 13.2288 13.1578 13.2417C12.5663 13.1641 11.9919 13.0153 11.4412 12.7987C11.5499 12.8407 11.6587 12.886 11.7675 12.928C11.2304 12.7113 10.7273 12.4332 10.265 12.0936C10.3567 12.1616 10.4485 12.2295 10.5403 12.2974C10.0848 11.961 9.67347 11.5697 9.31993 11.1363C9.39132 11.2237 9.46271 11.311 9.53409 11.3983C9.18056 10.9585 8.88481 10.4798 8.65705 9.96884C8.70124 10.0723 8.74883 10.1758 8.79303 10.2793C8.56527 9.75539 8.4089 9.20883 8.32731 8.6461C8.34431 8.75929 8.3613 8.87572 8.3749 8.98891C8.29672 8.42294 8.29672 7.85374 8.3749 7.28778C8.35791 7.40097 8.34091 7.5174 8.32731 7.63059C8.4089 7.06786 8.56527 6.5213 8.79303 5.99738C8.74883 6.10087 8.70124 6.20436 8.65705 6.30785C8.88481 5.79686 9.17716 5.31822 9.53409 4.87838C9.46271 4.9657 9.39132 5.05302 9.31993 5.14034C9.67347 4.70697 10.0848 4.31565 10.5403 3.9793C10.4485 4.04722 10.3567 4.11514 10.265 4.18305C10.7273 3.84671 11.2304 3.56534 11.7675 3.34866C11.6587 3.3907 11.5499 3.43598 11.4412 3.47802C11.9919 3.26134 12.5663 3.11257 13.1578 3.03495C13.0389 3.05112 12.9165 3.06729 12.7975 3.08023C13.3924 3.00584 13.9907 3.00584 14.5856 3.08023C14.4666 3.06406 14.3442 3.04789 14.2253 3.03495C14.8167 3.11257 15.3912 3.26134 15.9419 3.47802C15.8332 3.43598 15.7244 3.3907 15.6156 3.34866C16.1527 3.56534 16.6558 3.84347 17.1181 4.18305C17.0264 4.11514 16.9346 4.04722 16.8428 3.9793C17.2983 4.31565 17.7096 4.70697 18.0632 5.14034C17.9918 5.05302 17.9204 4.9657 17.849 4.87838C18.2025 5.31822 18.4983 5.79686 18.726 6.30785C18.6819 6.20436 18.6343 6.10087 18.5901 5.99738C18.8178 6.5213 18.9742 7.06786 19.0558 7.63059C19.0388 7.5174 19.0218 7.40097 19.0082 7.28778C19.0456 7.56914 19.0626 7.85374 19.066 8.13834C19.0694 8.81427 19.6881 9.46432 20.4257 9.43198C21.16 9.39964 21.7889 8.86278 21.7855 8.13834C21.7787 6.58921 21.2892 5.00451 20.3306 3.74322C20.0722 3.40364 19.7969 3.07053 19.4909 2.76976C19.1816 2.46575 18.8416 2.20379 18.4881 1.9483C17.8456 1.48259 17.1283 1.13977 16.3669 0.874579C13.2972 -0.195904 9.59528 0.758152 7.51826 3.16431C7.23271 3.49419 6.96076 3.837 6.7296 4.20569C6.49844 4.57114 6.31827 4.95923 6.1517 5.35379C5.83896 6.0847 5.67918 6.86088 5.6146 7.64676C5.48882 9.18619 5.91034 10.7935 6.75339 12.113C7.56585 13.3873 8.79303 14.4804 10.2276 15.0981C10.6491 15.2792 11.0808 15.4474 11.5295 15.567C11.9749 15.6835 12.427 15.7482 12.8859 15.7999C13.7221 15.8937 14.5754 15.829 15.4014 15.6705C18.5391 15.0625 21.1668 12.4914 21.6529 9.47402C21.7243 9.03419 21.7787 8.59435 21.7787 8.14805C21.7821 7.47212 21.1498 6.82207 20.4189 6.85441C19.6847 6.87705 19.066 7.41391 19.066 8.13834ZM23.577 28.3611C22.9107 28.3611 22.2444 28.3611 21.5781 28.3611C19.9906 28.3611 18.4065 28.3611 16.819 28.3611C14.9085 28.3611 12.9981 28.3611 11.0842 28.3611C9.43551 28.3611 7.78681 28.3611 6.1347 28.3611C5.36304 28.3611 4.59138 28.3676 3.81972 28.3611C3.73473 28.3611 3.64975 28.3546 3.56816 28.3449C3.68714 28.3611 3.80952 28.3773 3.9285 28.3902C3.79252 28.3708 3.66335 28.3352 3.53757 28.2867C3.64635 28.3288 3.75513 28.374 3.86391 28.4161C3.72793 28.3611 3.60216 28.29 3.48318 28.2026C3.57496 28.2705 3.66675 28.3385 3.75853 28.4064C3.65655 28.3255 3.56136 28.2382 3.47978 28.1412C3.55117 28.2285 3.62255 28.3158 3.69394 28.4031C3.60216 28.29 3.53077 28.1703 3.46958 28.0409C3.51377 28.1444 3.56136 28.2479 3.60556 28.3514C3.55457 28.2317 3.52057 28.1056 3.49678 27.9795C3.51377 28.0927 3.53077 28.2091 3.54437 28.3223C3.48998 27.931 3.52737 27.517 3.52737 27.1224C3.52737 26.66 3.52737 26.2007 3.52737 25.7383C3.52737 25.3922 3.54777 25.0494 3.59536 24.7066C3.57836 24.8198 3.56136 24.9362 3.54777 25.0494C3.64295 24.3864 3.82652 23.7364 4.10187 23.1186C4.05768 23.2221 4.01008 23.3256 3.96589 23.4291C4.23104 22.8405 4.57098 22.2875 4.98231 21.7797C4.91092 21.8671 4.83954 21.9544 4.76815 22.0417C5.17947 21.5404 5.65199 21.0876 6.1823 20.6963C6.09051 20.7642 5.99873 20.8321 5.90694 20.9001C6.44065 20.5087 7.02194 20.1853 7.64063 19.9331C7.53185 19.9751 7.42307 20.0204 7.31429 20.0624C7.96358 19.8037 8.64345 19.6258 9.34373 19.5353C9.22475 19.5514 9.10237 19.5676 8.98339 19.5806C9.4865 19.5191 9.98621 19.5159 10.4927 19.5159C11.1148 19.5159 11.7369 19.5159 12.359 19.5159C13.8105 19.5159 15.2621 19.5159 16.7136 19.5159C17.2745 19.5159 17.832 19.5126 18.3929 19.5806C18.2739 19.5644 18.1516 19.5482 18.0326 19.5353C18.7294 19.6258 19.4127 19.8005 20.062 20.0624C19.9532 20.0204 19.8444 19.9751 19.7357 19.9331C20.3544 20.1853 20.9356 20.5087 21.4694 20.9001C21.3776 20.8321 21.2858 20.7642 21.194 20.6963C21.7209 21.0876 22.1968 21.5372 22.6082 22.0417C22.5368 21.9544 22.4654 21.8671 22.394 21.7797C22.8053 22.2875 23.1453 22.8405 23.4104 23.4291C23.3662 23.3256 23.3186 23.2221 23.2744 23.1186C23.5464 23.7364 23.7333 24.3832 23.8285 25.0494C23.8115 24.9362 23.7945 24.8198 23.7809 24.7066C23.8455 25.1949 23.8489 25.68 23.8489 26.1716C23.8489 26.7052 23.8489 27.2389 23.8489 27.7725C23.8489 27.9568 23.8557 28.1412 23.8319 28.3223C23.8489 28.2091 23.8659 28.0927 23.8795 27.9795C23.8591 28.1088 23.8217 28.2317 23.7707 28.3514C23.8149 28.2479 23.8625 28.1444 23.9067 28.0409C23.8489 28.1703 23.7741 28.29 23.6824 28.4031C23.7537 28.3158 23.8251 28.2285 23.8965 28.1412C23.8115 28.2382 23.7198 28.3288 23.6178 28.4064C23.7096 28.3385 23.8013 28.2705 23.8931 28.2026C23.7741 28.29 23.6484 28.3579 23.5124 28.4161C23.6212 28.374 23.7299 28.3288 23.8387 28.2867C23.713 28.3352 23.5804 28.3676 23.4478 28.3902C23.5668 28.374 23.6892 28.3579 23.8081 28.3449C23.7333 28.3546 23.6552 28.3579 23.577 28.3611C23.2268 28.3643 22.8665 28.5034 22.6149 28.7395C22.3804 28.9626 22.2002 29.3313 22.2172 29.6547C22.2512 30.3468 22.8155 30.9581 23.577 30.9484C24.8993 30.929 26.0619 30.1075 26.4495 28.9012C26.6024 28.4226 26.5684 27.9083 26.5684 27.4167C26.5684 26.2913 26.6058 25.1755 26.4019 24.0598C26.1027 22.4265 25.2393 20.8904 24.0563 19.684C22.8733 18.4777 21.2824 17.5916 19.5997 17.197C18.6343 16.9706 17.662 16.9351 16.6762 16.9351C15.6632 16.9351 14.6536 16.9351 13.6406 16.9351C12.6411 16.9351 11.6451 16.9351 10.6457 16.9351C9.63608 16.9351 8.63326 16.9803 7.65083 17.2294C5.98173 17.6498 4.41121 18.5456 3.25202 19.7617C2.08263 20.9874 1.23618 22.5268 0.960831 24.1697C0.777264 25.2725 0.814657 26.3786 0.814657 27.4911C0.814657 28.0021 0.784062 28.5357 0.977828 29.0241C1.22938 29.6515 1.63051 30.1463 2.21861 30.5182C2.67752 30.8061 3.25882 30.9451 3.80272 30.9516C4.06787 30.9548 4.33303 30.9516 4.59818 30.9516C5.27806 30.9516 5.95454 30.9516 6.63441 30.9516C7.59984 30.9516 8.56187 30.9516 9.5273 30.9516C10.6491 30.9516 11.7709 30.9516 12.8927 30.9516C14.0451 30.9516 15.1941 30.9516 16.3465 30.9516C17.4003 30.9516 18.4507 30.9516 19.5045 30.9516C20.3306 30.9516 21.1566 30.9516 21.9793 30.9516C22.4518 30.9516 22.9243 30.9516 23.3968 30.9516C23.458 30.9516 23.5192 30.9516 23.5804 30.9516C24.2908 30.9516 24.9741 30.3565 24.9401 29.658C24.9061 28.9529 24.3418 28.3611 23.577 28.3611Z" fill="#FF7A00"/>
</svg>
