<svg width="29" height="29" viewBox="0 0 29 29" fill="none" xmlns="http://www.w3.org/2000/svg">
<path d="M21.9312 11.0499L21.5687 22.0218C21.5379 22.9615 21.142 23.8522 20.4652 24.5048C19.7884 25.1574 18.8839 25.5206 17.9437 25.5172H11.0562C10.1167 25.5206 9.21271 25.1579 8.536 24.5061C7.8593 23.8542 7.46304 22.9645 7.43124 22.0254L7.06874 11.0499C7.06081 10.8095 7.14869 10.5758 7.31303 10.4003C7.47738 10.2247 7.70474 10.1216 7.94509 10.1137C8.18544 10.1058 8.4191 10.1936 8.59466 10.358C8.77023 10.5223 8.87331 10.7497 8.88124 10.99L9.24374 21.9647C9.26179 22.4332 9.46069 22.8765 9.79867 23.2015C10.1366 23.5264 10.5874 23.7078 11.0562 23.7074H17.9437C18.4132 23.7078 18.8645 23.5259 19.2025 23.2002C19.5406 22.8744 19.7391 22.4302 19.7562 21.9611L20.1187 10.99C20.1267 10.7497 20.2298 10.5223 20.4053 10.358C20.5809 10.1936 20.8145 10.1058 21.0549 10.1137C21.2953 10.1216 21.5226 10.2247 21.687 10.4003C21.8513 10.5758 21.9392 10.8095 21.9312 11.0499ZM23.1302 7.39857C23.1302 7.63892 23.0347 7.86943 22.8648 8.03939C22.6948 8.20934 22.4643 8.30482 22.224 8.30482H6.77693C6.53658 8.30482 6.30607 8.20934 6.13612 8.03939C5.96616 7.86943 5.87068 7.63892 5.87068 7.39857C5.87068 7.15822 5.96616 6.92771 6.13612 6.75775C6.30607 6.5878 6.53658 6.49232 6.77693 6.49232H9.58631C9.87345 6.49309 10.1506 6.38701 10.3639 6.1947C10.5771 6.0024 10.7112 5.73764 10.74 5.45194C10.8068 4.78176 11.1208 4.16048 11.6207 3.70914C12.1207 3.25781 12.7707 3.00876 13.4442 3.01051H15.5558C16.2293 3.00876 16.8793 3.25781 17.3792 3.70914C17.8792 4.16048 18.1931 4.78176 18.26 5.45194C18.2888 5.73764 18.4229 6.0024 18.6361 6.1947C18.8494 6.38701 19.1265 6.49309 19.4137 6.49232H22.2231C22.4634 6.49232 22.6939 6.5878 22.8639 6.75775C23.0338 6.92771 23.1293 7.15822 23.1293 7.39857H23.1302ZM12.3132 6.49232H16.6886C16.5695 6.22021 16.4916 5.93188 16.4575 5.63682C16.435 5.41344 16.3305 5.20634 16.164 5.05565C15.9976 4.90496 15.7812 4.82142 15.5567 4.82119H13.4451C13.2206 4.82142 13.0042 4.90496 12.8378 5.05565C12.6713 5.20634 12.5668 5.41344 12.5443 5.63682C12.5099 5.93193 12.4317 6.22026 12.3123 6.49232H12.3132ZM13.2258 20.2229V12.5062C13.2258 12.2658 13.1303 12.0353 12.9604 11.8654C12.7904 11.6954 12.5599 11.5999 12.3196 11.5999C12.0792 11.5999 11.8487 11.6954 11.6787 11.8654C11.5088 12.0353 11.4133 12.2658 11.4133 12.5062V20.2265C11.4133 20.4669 11.5088 20.6974 11.6787 20.8674C11.8487 21.0373 12.0792 21.1328 12.3196 21.1328C12.5599 21.1328 12.7904 21.0373 12.9604 20.8674C13.1303 20.6974 13.2258 20.4669 13.2258 20.2265V20.2229ZM17.5885 20.2229V12.5062C17.5885 12.2658 17.493 12.0353 17.3231 11.8654C17.1531 11.6954 16.9226 11.5999 16.6822 11.5999C16.4419 11.5999 16.2114 11.6954 16.0414 11.8654C15.8715 12.0353 15.776 12.2658 15.776 12.5062V20.2265C15.776 20.4669 15.8715 20.6974 16.0414 20.8674C16.2114 21.0373 16.4419 21.1328 16.6822 21.1328C16.9226 21.1328 17.1531 21.0373 17.3231 20.8674C17.493 20.6974 17.5885 20.4669 17.5885 20.2265V20.2229Z" fill="#2D3648"/>
</svg>
