<svg width="25" height="25" viewBox="0 0 25 25" fill="none" xmlns="http://www.w3.org/2000/svg">
<path d="M12.4661 0.502321L12.4662 0.502308C12.6658 0.479271 12.8403 0.637178 12.8367 0.839165L12.8366 0.839163V0.848075V8.42706V8.83446L13.2356 8.91676C14.9044 9.26095 16.1715 10.7496 16.1715 12.5093C16.1715 14.2516 14.9308 15.7235 13.2857 16.085H12.8366V16.585V24.164C12.8366 24.3059 12.7883 24.3756 12.7441 24.4149C12.6906 24.4624 12.6051 24.4969 12.5033 24.4969C12.4014 24.4969 12.3159 24.4624 12.2624 24.4149C12.2182 24.3756 12.1699 24.3059 12.1699 24.164V16.5867V16.1784L11.7699 16.0968C10.0999 15.756 8.83497 14.2713 8.83496 12.5093C8.83497 10.7466 10.1007 9.25701 11.7702 8.91528L12.1699 8.83346V8.42544V0.848075H12.17L12.1698 0.83919C12.1668 0.668722 12.2945 0.522075 12.4661 0.502321ZM20.801 0.502321L20.8011 0.502308C21.002 0.479133 21.1768 0.63838 21.1733 0.839164L21.1732 0.839162V0.848075V16.7558V17.1634L21.5724 17.2456C23.2393 17.5885 24.5 19.0713 24.5 20.8316C24.5 22.8457 22.8495 24.5 20.835 24.5C18.8207 24.5 17.1716 22.8459 17.1715 20.8316C17.1716 19.0692 18.4352 17.5848 20.1049 17.2441L20.5049 17.1625V16.7542V0.848075H20.505L20.5048 0.83919C20.5018 0.668722 20.6295 0.522075 20.801 0.502321ZM3.83496 8.25629V7.84848L3.43548 7.7665C1.76571 7.42383 0.500005 5.94022 0.5 4.18055C0.500006 2.16846 2.15502 0.518615 4.17155 0.518615C6.18681 0.518615 7.83496 2.16719 7.83496 4.18055C7.83496 5.94286 6.57132 7.42727 4.90165 7.76802L4.50163 7.84965V8.25792V20.8316C4.50163 20.9734 4.45338 21.0431 4.40912 21.0824C4.35565 21.13 4.27016 21.1645 4.16829 21.1645C4.06643 21.1645 3.98094 21.13 3.92746 21.0824C3.88321 21.0431 3.83496 20.9734 3.83496 20.8316V8.25629ZM7.16829 4.18055C7.16829 2.51664 5.84004 1.17754 4.17155 1.17754C2.50518 1.17754 1.16667 2.51451 1.16667 4.18055C1.16667 5.84871 2.50731 7.17544 4.17155 7.17544C5.83792 7.17544 7.16829 5.84659 7.16829 4.18055ZM15.5049 12.5093C15.5049 10.8428 14.1659 9.50792 12.5 9.50792C10.8319 9.50792 9.50326 10.845 9.50325 12.5093C9.50326 14.1753 10.8336 15.5042 12.5 15.5042C14.1642 15.5042 15.5049 14.1775 15.5049 12.5093ZM23.8398 20.8316C23.8398 19.1634 22.4992 17.8367 20.835 17.8367C19.1686 17.8367 17.8382 19.1655 17.8382 20.8316C17.8382 22.4955 19.1665 23.8346 20.835 23.8346C22.5013 23.8346 23.8398 22.4976 23.8398 20.8316ZM4.04224 23.8567C4.08271 23.8399 4.12609 23.8313 4.16992 23.8313C4.21375 23.8313 4.25714 23.8399 4.2976 23.8567C4.33807 23.8734 4.37482 23.898 4.40576 23.9289C4.43669 23.9598 4.46121 23.9965 4.47793 24.0368L4.93982 23.8454L4.47793 24.0368C4.49465 24.0772 4.50325 24.1204 4.50325 24.164C4.50325 24.2077 4.49465 24.2509 4.47793 24.2912L4.93982 24.4827L4.47793 24.2912C4.46121 24.3316 4.43669 24.3683 4.40576 24.3992C4.37482 24.4301 4.33807 24.4546 4.29761 24.4714C4.25714 24.4881 4.21375 24.4967 4.16992 24.4967C4.12609 24.4967 4.08271 24.4881 4.04224 24.4714C4.00177 24.4546 3.96502 24.4301 3.93409 24.3992C3.90315 24.3683 3.87863 24.3316 3.86191 24.2912L3.40002 24.4827L3.86191 24.2912C3.84519 24.2509 3.83659 24.2077 3.83659 24.164C3.83659 24.1204 3.84519 24.0772 3.86191 24.0368L3.40002 23.8454L3.86191 24.0368C3.87863 23.9965 3.90315 23.9598 3.93409 23.9289C3.96502 23.898 4.00177 23.8734 4.04224 23.8567Z" fill="#AAA8A8" stroke="#AAA8A8"/>
</svg>
