<svg width="25" height="25" viewBox="0 0 25 25" fill="none" xmlns="http://www.w3.org/2000/svg">
<path d="M19.1059 17.3077V17.7161L19.3919 18.0078L21.0134 19.6616L21.0162 19.6644C21.1032 19.7525 21.123 19.8635 21.0749 19.9806C21.0506 20.0397 21.0135 20.0838 20.9755 20.111C20.9422 20.1347 20.8976 20.1538 20.828 20.1538H4.14389C4.07447 20.1538 4.03167 20.1348 4.00073 20.1126C3.96493 20.0869 3.92918 20.0444 3.90568 19.9862C3.85916 19.871 3.87779 19.7568 3.96749 19.6654C3.9678 19.665 3.96811 19.6647 3.96842 19.6644L5.61258 18.0133L5.90399 17.7207V17.3077V10.8974C5.90399 7.28879 7.76083 4.50513 10.8379 3.76731L11.6047 3.58344V2.79487V1.92308C11.6047 1.39116 12.013 1 12.4923 1C12.9889 1 13.4052 1.40865 13.4052 1.92308V2.79487V3.58279L14.1713 3.76712C17.237 4.50481 19.1059 7.30252 19.1059 10.8974V17.3077ZM5.20413 2.12144L5.20413 2.12143L5.20054 2.12475C3.27841 3.90204 1.9513 6.32133 1.53503 9.03335C1.51111 9.1679 1.39412 9.25641 1.28085 9.25641C1.12416 9.25641 0.976921 9.11211 1.003 8.91751C1.45009 6.09486 2.83331 3.5827 4.8349 1.73474L4.84208 1.72811L4.84913 1.72134C4.94623 1.62812 5.10642 1.6276 5.20613 1.72851C5.32232 1.84609 5.3094 2.02505 5.20413 2.12144ZM20.1826 1.73004L20.1832 1.73058L19.1305 2.84615L19.8146 2.11679C19.8142 2.11638 19.8137 2.11598 19.8133 2.11557C19.6985 2.00658 19.6995 1.83407 19.8038 1.72851C19.8986 1.63257 20.0654 1.62026 20.1826 1.73004ZM13.6679 23.4359C13.3837 23.7813 12.9579 24 12.4923 24C12.0208 24 11.5951 23.7818 11.3125 23.4359H13.6679Z" stroke="#AAA8A8" stroke-width="2"/>
</svg>
