<svg width="24" height="26" viewBox="0 0 24 26" fill="none" xmlns="http://www.w3.org/2000/svg">
<path d="M5.25728 18.3898C4.88072 18.3898 4.57906 18.0809 4.57906 17.7001C4.57906 17.3192 4.88488 17.0103 5.25728 17.0103H9.72816C10.1047 17.0103 10.4064 17.3192 10.4064 17.7001C10.4064 18.0809 10.1026 18.3898 9.72816 18.3898H5.25728ZM12.7115 16.3904C12.5118 16.3904 12.3412 16.2169 12.3412 16.0054C12.3412 15.8023 12.5118 15.6288 12.7115 15.6288H13.6789C13.6872 15.6288 13.708 15.6288 13.7164 15.6288C14.0576 15.6372 14.3613 15.7049 14.6172 15.87C14.9022 16.054 15.1103 16.3333 15.2247 16.748C15.2247 16.7564 15.2247 16.767 15.2351 16.7776L15.3308 17.1627H23.6297C23.8377 17.1627 24 17.3362 24 17.5393C24 17.5773 23.9896 17.6154 23.9813 17.6556L23.0139 21.6205C22.9764 21.794 22.8245 21.9103 22.654 21.9103H16.5832C16.7164 22.4117 16.8495 22.6826 17.0284 22.8074C17.2469 22.9513 17.6255 22.9618 18.2621 22.9513H18.2705H22.5583C22.7663 22.9513 22.9286 23.1247 22.9286 23.3279C22.9286 23.5394 22.758 23.7045 22.5583 23.7045H18.2684C17.4799 23.7129 16.9972 23.6939 16.6082 23.4336C16.2087 23.1628 16.0007 22.7016 15.7926 21.8617L14.5215 16.968C14.5215 16.9574 14.5215 16.9574 14.5132 16.949C14.457 16.7374 14.3613 16.5914 14.2282 16.5153C14.095 16.4285 13.9161 16.3904 13.706 16.3904C13.6956 16.3904 13.6872 16.3904 13.6768 16.3904H12.7115ZM21.4473 24.1466C21.9508 24.1466 22.3585 24.5613 22.3585 25.0733C22.3585 25.5853 21.9508 26 21.4473 26C20.9438 26 20.5361 25.5853 20.5361 25.0733C20.5361 24.5613 20.9438 24.1466 21.4473 24.1466ZM17.4528 24.1466C17.9563 24.1466 18.3641 24.5613 18.3641 25.0733C18.3641 25.5853 17.9563 26 17.4528 26C16.9494 26 16.5416 25.5853 16.5416 25.0733C16.5416 24.5613 16.9515 24.1466 17.4528 24.1466ZM5.25728 7.10457C4.88072 7.10457 4.57906 6.79356 4.57906 6.41484C4.57906 6.03401 4.88488 5.72512 5.25728 5.72512H15.7677C16.1442 5.72512 16.4459 6.03401 16.4459 6.41484C16.4459 6.79567 16.1422 7.10457 15.7677 7.10457H5.25728ZM1.5749 0H19.3897C19.8245 0 20.2198 0.179836 20.5028 0.467573C20.7857 0.75531 20.9626 1.1573 20.9626 1.59948V14.2895H19.6103V1.60583C19.6103 1.54447 19.5853 1.48735 19.5458 1.44503C19.5042 1.40483 19.448 1.37944 19.3877 1.37944H1.5749C1.51456 1.37944 1.45839 1.40483 1.41678 1.44503C1.37517 1.48523 1.35437 1.54447 1.35437 1.60583V22.4816C1.35437 22.5429 1.37933 22.6 1.41886 22.6424C1.45839 22.6847 1.51456 22.708 1.57698 22.708H13.0298C13.1567 23.2136 13.3003 23.6558 13.4938 24.0768H1.5749C1.14008 24.0768 0.744799 23.897 0.461859 23.6092C0.176838 23.3236 0 22.9216 0 22.4795V1.60159C0 1.15941 0.176838 0.75531 0.459778 0.467573C0.742718 0.179836 1.14008 0 1.5749 0ZM5.25728 12.7472C4.88072 12.7472 4.57906 12.4383 4.57906 12.0575C4.57906 11.6766 4.88488 11.3677 5.25728 11.3677H15.7677C16.1442 11.3677 16.4459 11.6766 16.4459 12.0575C16.4459 12.4383 16.1422 12.7472 15.7677 12.7472H5.25728Z" fill="white"/>
</svg>
