<svg width="31" height="33" viewBox="0 0 31 33" fill="none" xmlns="http://www.w3.org/2000/svg">
<path d="M6.9274 23.0898C6.46101 23.0898 6.08739 22.7081 6.08739 22.2374C6.08739 21.7667 6.46617 21.3849 6.9274 21.3849H12.4647C12.9311 21.3849 13.3047 21.7667 13.3047 22.2374C13.3047 22.7081 12.9285 23.0898 12.4647 23.0898H6.9274ZM16.1597 20.6187C15.9123 20.6187 15.7011 20.4043 15.7011 20.1428C15.7011 19.8918 15.9123 19.6774 16.1597 19.6774H17.3579C17.3682 19.6774 17.3939 19.6774 17.4043 19.6774C17.8268 19.6878 18.203 19.7715 18.52 19.9755C18.873 20.203 19.1306 20.5481 19.2724 21.0607C19.2724 21.0711 19.2724 21.0842 19.2852 21.0973L19.4038 21.5732H29.6822C29.9399 21.5732 30.1409 21.7876 30.1409 22.0386C30.1409 22.0857 30.128 22.1328 30.1177 22.1825L28.9195 27.0828C28.8731 27.2973 28.685 27.4411 28.4738 27.4411H20.9549C21.1199 28.0608 21.2848 28.3955 21.5064 28.5498C21.7769 28.7276 22.2459 28.7407 23.0343 28.7276H23.0446H28.3552C28.6129 28.7276 28.8139 28.9421 28.8139 29.1931C28.8139 29.4546 28.6026 29.6586 28.3552 29.6586H23.0421C22.0655 29.669 21.4677 29.6455 20.9859 29.3238C20.4911 28.9891 20.2335 28.4191 19.9758 27.3809L18.4014 21.3326C18.4014 21.3195 18.4014 21.3195 18.3911 21.3091C18.3216 21.0476 18.203 20.8671 18.0381 20.773C17.8732 20.6658 17.6516 20.6187 17.3914 20.6187C17.3785 20.6187 17.3682 20.6187 17.3553 20.6187H16.1597ZM26.9793 30.2051C27.6028 30.2051 28.1079 30.7176 28.1079 31.3504C28.1079 31.9832 27.6028 32.4958 26.9793 32.4958C26.3557 32.4958 25.8507 31.9832 25.8507 31.3504C25.8507 30.7176 26.3557 30.2051 26.9793 30.2051ZM22.032 30.2051C22.6556 30.2051 23.1606 30.7176 23.1606 31.3504C23.1606 31.9832 22.6556 32.4958 22.032 32.4958C21.4084 32.4958 20.9034 31.9832 20.9034 31.3504C20.9034 30.7176 21.411 30.2051 22.032 30.2051ZM6.9274 9.14179C6.46101 9.14179 6.08739 8.75739 6.08739 8.28932C6.08739 7.81863 6.46617 7.43685 6.9274 7.43685H19.9449C20.4113 7.43685 20.7849 7.81863 20.7849 8.28932C20.7849 8.76001 20.4087 9.14179 19.9449 9.14179H6.9274ZM2.36664 0.36084H24.4309C24.9694 0.36084 25.459 0.583109 25.8094 0.93874C26.1599 1.29437 26.3789 1.79121 26.3789 2.33773V18.0221H24.704V2.34557C24.704 2.26974 24.6731 2.19914 24.6242 2.14684C24.5726 2.09716 24.5031 2.06578 24.4283 2.06578H2.36664C2.29191 2.06578 2.22234 2.09716 2.17081 2.14684C2.11927 2.19652 2.09351 2.26974 2.09351 2.34557V28.1471C2.09351 28.223 2.12443 28.2936 2.17339 28.3459C2.22234 28.3982 2.29191 28.4269 2.36921 28.4269H16.5539C16.7111 29.0519 16.8889 29.5984 17.1285 30.1188H2.36664C1.82811 30.1188 1.33854 29.8965 0.988104 29.5409C0.635096 29.1879 0.416077 28.691 0.416077 28.1445V2.34034C0.416077 1.79382 0.635096 1.29437 0.985527 0.93874C1.33596 0.583109 1.82811 0.36084 2.36664 0.36084ZM6.9274 16.1158C6.46101 16.1158 6.08739 15.734 6.08739 15.2633C6.08739 14.7927 6.46617 14.4109 6.9274 14.4109H19.9449C20.4113 14.4109 20.7849 14.7927 20.7849 15.2633C20.7849 15.734 20.4087 16.1158 19.9449 16.1158H6.9274Z" fill="#FF7A00"/>
</svg>
