<svg width="31" height="22" viewBox="0 0 31 22" fill="none" xmlns="http://www.w3.org/2000/svg">
<path d="M17.979 12.8859C17.9341 12.8532 17.892 12.8169 17.853 12.7774C16.926 11.665 15.986 10.5647 14.9979 9.50703C14.9696 9.47863 14.9474 9.44473 14.9327 9.40742C14.9181 9.37011 14.9112 9.33018 14.9126 9.29012C14.9126 9.07506 14.9126 8.86 14.9126 8.64123C14.9126 8.47252 14.9821 8.4067 15.1545 8.40392C15.4818 8.39929 15.8099 8.40392 16.1371 8.38446C16.5127 8.37294 16.8766 8.25142 17.1837 8.03498C17.3737 7.89784 17.5139 7.70263 17.5832 7.4788C17.5879 7.46396 17.5888 7.4482 17.5934 7.4241H15.1666C14.9691 7.4241 14.9135 7.36848 14.9135 7.17011V6.68715C14.9135 6.51473 14.9747 6.45355 15.1462 6.45355H17.5174C17.4294 6.27595 17.289 6.12968 17.1151 6.03456C16.827 5.88135 16.506 5.80054 16.1798 5.7991C15.8451 5.78705 15.5086 5.79262 15.1731 5.79169C14.9747 5.79169 14.9135 5.72958 14.9135 5.53121C14.9135 5.3078 14.9135 5.08533 14.9135 4.86285C14.9135 4.70156 14.9793 4.63574 15.1378 4.63574H19.9405C20.0944 4.63574 20.1612 4.70156 20.163 4.85729C20.163 5.03465 20.163 5.21171 20.163 5.38845C20.163 5.54326 20.0963 5.60629 19.9396 5.60722H18.6196C18.6842 5.70663 18.743 5.8097 18.7957 5.9159C18.8606 6.06515 18.9125 6.21995 18.9626 6.37476C18.9811 6.43131 19.0006 6.45633 19.0655 6.45541C19.3584 6.45077 19.6513 6.45541 19.9433 6.45541C20.1111 6.45541 20.1732 6.51659 20.1732 6.68252C20.1732 6.84845 20.1732 7.03755 20.1732 7.21461C20.1732 7.35921 20.1046 7.42503 19.9591 7.42596C19.6662 7.42596 19.3742 7.42596 19.0812 7.42596C19.0238 7.42596 18.9987 7.43801 18.9885 7.50104C18.9046 8.0037 18.6455 8.46046 18.2571 8.79047C17.9031 9.08567 17.4803 9.28684 17.028 9.3754C16.9019 9.40228 16.7749 9.42175 16.6386 9.4477C16.6618 9.47551 16.6822 9.49869 16.7026 9.52186C17.6092 10.5026 18.4574 11.5334 19.3046 12.5642C19.4066 12.6875 19.3843 12.7885 19.2379 12.8887L17.979 12.8859Z" fill="#AAA8A8"/>
<path d="M6.71156 17.5837C6.04104 17.5837 5.49073 17.3056 5.06061 16.7494C4.80425 16.398 4.67128 15.9717 4.6824 15.5369V2.04931C4.67087 1.61386 4.80386 1.18685 5.06061 0.834959C5.4932 0.278771 6.04352 0.000675994 6.71156 0.000675994H28.3325C28.7678 -0.010706 29.1946 0.121917 29.5468 0.377958C30.103 0.81055 30.3811 1.36118 30.3811 2.02984V15.535C30.3921 15.9697 30.2595 16.3958 30.0038 16.7475C29.5712 17.3037 29.0206 17.5818 28.3519 17.5818L6.71156 17.5837ZM10.0932 15.5554H24.9712C24.9667 15.1101 25.051 14.6684 25.2192 14.2561C25.3875 13.8439 25.6363 13.4693 25.9512 13.1544C26.266 12.8394 26.6405 12.5905 27.0527 12.4221C27.465 12.2538 27.9067 12.1693 28.3519 12.1738V5.40683C27.9067 5.41155 27.4649 5.32732 27.0527 5.15909C26.6404 4.99087 26.2658 4.74202 25.9509 4.42715C25.6361 4.11228 25.3872 3.73772 25.219 3.32542C25.0508 2.91313 24.9665 2.4714 24.9712 2.02613H10.0932C10.0977 2.47141 10.0132 2.9131 9.84485 3.32535C9.67648 3.73759 9.42754 4.11209 9.11262 4.42693C8.79771 4.74176 8.42313 4.99059 8.01084 5.15885C7.59856 5.32711 7.15684 5.41142 6.71156 5.40683V12.1738C7.15685 12.1695 7.59853 12.254 8.01076 12.4224C8.423 12.5908 8.79751 12.8397 9.1124 13.1546C9.42728 13.4695 9.6762 13.844 9.84461 14.2562C10.013 14.6685 10.0975 15.1101 10.0932 15.5554ZM26.3237 21.6411H2.67363C2.23828 21.6529 1.81126 21.5203 1.45928 21.2638C0.903094 20.8312 0.625 20.2809 0.625 19.6128V4.05807H2.65416V19.6128H26.3237V21.6411Z" fill="#AAA8A8"/>
</svg>
