<svg width="35" height="32" viewBox="0 0 35 32" fill="none" xmlns="http://www.w3.org/2000/svg">
<path d="M31.0951 8.93293C31.0951 9.64102 31.0951 10.3457 31.0951 11.0538C31.0951 12.7532 31.0951 14.4491 31.0951 16.1486C31.0951 18.2037 31.0951 20.2589 31.0951 22.3107C31.0951 24.0861 31.0951 25.8615 31.0951 27.6369C31.0951 28.497 31.0847 29.3605 31.0951 30.2206C31.0951 30.2309 31.0951 30.2447 31.0951 30.2551C31.6719 29.6783 32.2453 29.1049 32.8221 28.5281C32.5492 28.5281 32.2764 28.5281 32.0035 28.5281C31.2609 28.5281 30.5148 28.5281 29.7721 28.5281C28.6737 28.5281 27.5719 28.5281 26.4735 28.5281C25.1333 28.5281 23.7896 28.5281 22.4494 28.5281C20.9815 28.5281 19.51 28.5281 18.042 28.5281C16.5637 28.5281 15.0853 28.5281 13.6104 28.5281C12.2288 28.5281 10.8437 28.5281 9.46202 28.5281C8.29453 28.5281 7.12359 28.5281 5.9561 28.5281C5.11675 28.5281 4.27395 28.5281 3.43461 28.5281C3.03738 28.5281 2.64016 28.5246 2.24294 28.5281C2.22567 28.5281 2.2084 28.5281 2.19113 28.5281C2.76796 29.1049 3.34135 29.6783 3.91818 30.2551C3.91818 29.547 3.91818 28.8424 3.91818 28.1343C3.91818 26.4349 3.91818 24.7389 3.91818 23.0395C3.91818 20.9843 3.91818 18.9291 3.91818 16.8774C3.91818 15.102 3.91818 13.3266 3.91818 11.5511C3.91818 10.6911 3.92854 9.82755 3.91818 8.96747C3.91818 8.95711 3.91818 8.94329 3.91818 8.93293C3.34135 9.50977 2.76796 10.0831 2.19113 10.66C2.464 10.66 2.73688 10.66 3.00975 10.66C3.75238 10.66 4.49847 10.66 5.2411 10.66C6.33951 10.66 7.44137 10.66 8.53977 10.66C9.87996 10.66 11.2236 10.66 12.5638 10.66C14.0318 10.66 15.5032 10.66 16.9712 10.66C18.4496 10.66 19.9279 10.66 21.4029 10.66C22.7845 10.66 24.1696 10.66 25.5512 10.66C26.7187 10.66 27.8897 10.66 29.0571 10.66C29.8965 10.66 30.7393 10.66 31.5786 10.66C31.9759 10.66 32.3731 10.6634 32.7703 10.66C32.7876 10.66 32.8048 10.66 32.8221 10.66C33.2642 10.66 33.7305 10.4666 34.0449 10.1557C34.3454 9.85518 34.5699 9.3647 34.5492 8.93293C34.5284 8.48735 34.3834 8.0245 34.0449 7.71018C33.7064 7.39931 33.2919 7.20588 32.8221 7.20588C32.5492 7.20588 32.2764 7.20588 32.0035 7.20588C31.2609 7.20588 30.5148 7.20588 29.7721 7.20588C28.6737 7.20588 27.5719 7.20588 26.4735 7.20588C25.1333 7.20588 23.7896 7.20588 22.4494 7.20588C20.9815 7.20588 19.51 7.20588 18.042 7.20588C16.5637 7.20588 15.0853 7.20588 13.6104 7.20588C12.2288 7.20588 10.8437 7.20588 9.46202 7.20588C8.29453 7.20588 7.12359 7.20588 5.9561 7.20588C5.11675 7.20588 4.27395 7.20588 3.43461 7.20588C3.03738 7.20588 2.64016 7.20243 2.24294 7.20588C2.22567 7.20588 2.2084 7.20588 2.19113 7.20588C1.25852 7.20588 0.464078 7.99687 0.464078 8.93293C0.464078 9.64102 0.464078 10.3457 0.464078 11.0538C0.464078 12.7532 0.464078 14.4491 0.464078 16.1486C0.464078 18.2037 0.464078 20.2589 0.464078 22.3107C0.464078 24.0861 0.464078 25.8615 0.464078 27.6369C0.464078 28.497 0.453716 29.3605 0.464078 30.2206C0.464078 30.2309 0.464078 30.2447 0.464078 30.2551C0.464078 31.1877 1.25507 31.9822 2.19113 31.9822C2.464 31.9822 2.73688 31.9822 3.00975 31.9822C3.75238 31.9822 4.49847 31.9822 5.2411 31.9822C6.33951 31.9822 7.44137 31.9822 8.53977 31.9822C9.87996 31.9822 11.2236 31.9822 12.5638 31.9822C14.0318 31.9822 15.5032 31.9822 16.9712 31.9822C18.4496 31.9822 19.9279 31.9822 21.4029 31.9822C22.7845 31.9822 24.1696 31.9822 25.5512 31.9822C26.7187 31.9822 27.8897 31.9822 29.0571 31.9822C29.8965 31.9822 30.7393 31.9822 31.5786 31.9822C31.9759 31.9822 32.3731 31.9856 32.7703 31.9822C32.7876 31.9822 32.8048 31.9822 32.8221 31.9822C33.7547 31.9822 34.5492 31.1912 34.5492 30.2551C34.5492 29.547 34.5492 28.8424 34.5492 28.1343C34.5492 26.4349 34.5492 24.7389 34.5492 23.0395C34.5492 20.9843 34.5492 18.9291 34.5492 16.8774C34.5492 15.102 34.5492 13.3266 34.5492 11.5511C34.5492 10.6911 34.5595 9.82755 34.5492 8.96747C34.5492 8.95711 34.5492 8.94329 34.5492 8.93293C34.5492 8.49081 34.3557 8.0245 34.0449 7.71018C33.7444 7.40967 33.2539 7.18516 32.8221 7.20588C32.3765 7.22661 31.9137 7.37168 31.5994 7.71018C31.2919 8.05214 31.0951 8.46663 31.0951 8.93293Z" fill="#FF7A00"/>
<path d="M32.8214 7.21016C32.5486 7.21016 32.2757 7.21016 32.0028 7.21016C31.2602 7.21016 30.5141 7.21016 29.7715 7.21016C28.6731 7.21016 27.5712 7.21016 26.4728 7.21016C25.1326 7.21016 23.789 7.21016 22.4488 7.21016C20.9808 7.21016 19.5093 7.21016 18.0413 7.21016C16.563 7.21016 15.0846 7.21016 13.6097 7.21016C12.2281 7.21016 10.843 7.21016 9.46133 7.21016C8.29385 7.21016 7.12291 7.21016 5.95542 7.21016C5.11607 7.21016 4.27327 7.21016 3.43392 7.21016C3.0367 7.21016 2.63948 7.20671 2.24226 7.21016C2.22499 7.21016 2.20772 7.21016 2.19045 7.21016C2.59803 8.19458 3.00561 9.17555 3.4132 10.16C4.1731 9.3517 4.933 8.54344 5.69291 7.73518C6.9053 6.4468 8.11769 5.16188 9.32662 3.8735C9.60295 3.5799 9.88273 3.28285 10.1591 2.98925C9.75148 3.1585 9.34389 3.32775 8.93631 3.49355C9.50624 3.49355 10.0727 3.49355 10.6426 3.49355C12.007 3.49355 13.3748 3.49355 14.7392 3.49355C16.3868 3.49355 18.031 3.49355 19.6786 3.49355C21.112 3.49355 22.542 3.49355 23.9755 3.49355C24.6663 3.49355 25.3571 3.50391 26.0479 3.49355C26.0583 3.49355 26.0687 3.49355 26.079 3.49355C25.6714 3.3243 25.2639 3.15504 24.8563 2.98925C25.6162 3.79751 26.3761 4.60577 27.136 5.41403C28.3484 6.70241 29.5608 7.98733 30.7697 9.27571C31.046 9.56931 31.3258 9.86637 31.6021 10.16C31.8992 10.4777 32.3931 10.6643 32.8249 10.6643C33.2497 10.6643 33.754 10.4777 34.0476 10.16C34.3481 9.83183 34.5727 9.40006 34.5519 8.93721C34.5312 8.47091 34.3689 8.05987 34.0476 7.71446C33.3603 6.98564 32.6764 6.25683 31.989 5.52801C30.8181 4.28454 29.6506 3.04106 28.4796 1.80104C28.1308 1.42799 27.7784 1.0584 27.4296 0.685361C27.0738 0.30541 26.6317 0.0498063 26.0756 0.039444C26.0272 0.039444 25.9789 0.039444 25.934 0.039444C24.9944 0.039444 24.0549 0.039444 23.1154 0.039444C21.4643 0.039444 19.8133 0.039444 18.1622 0.039444C16.4283 0.039444 14.6943 0.039444 12.9638 0.039444C11.7963 0.039444 10.6288 0.039444 9.46133 0.039444C9.15047 0.039444 8.77397 0.00490293 8.47691 0.101618C7.88281 0.295048 7.55467 0.716448 7.15054 1.14476C6.0625 2.29843 4.97791 3.4521 3.88987 4.60922C2.96417 5.59364 2.03847 6.57461 1.11277 7.55903C1.06441 7.61084 1.0126 7.6661 0.96424 7.71791C0.484119 8.22912 0.332139 8.95448 0.608467 9.60385C0.874433 10.229 1.49272 10.6643 2.18699 10.6643C2.45987 10.6643 2.73274 10.6643 3.00561 10.6643C3.74825 10.6643 4.49433 10.6643 5.23697 10.6643C6.33537 10.6643 7.43723 10.6643 8.53563 10.6643C9.87583 10.6643 11.2195 10.6643 12.5597 10.6643C14.0277 10.6643 15.4991 10.6643 16.9671 10.6643C18.4455 10.6643 19.9238 10.6643 21.3987 10.6643C22.7804 10.6643 24.1655 10.6643 25.5471 10.6643C26.7146 10.6643 27.8855 10.6643 29.053 10.6643C29.8924 10.6643 30.7352 10.6643 31.5745 10.6643C31.9717 10.6643 32.3689 10.6677 32.7662 10.6643C32.7834 10.6643 32.8007 10.6643 32.818 10.6643C33.2601 10.6643 33.7264 10.4708 34.0407 10.16C34.3412 9.85946 34.5658 9.36898 34.545 8.93721C34.5243 8.49163 34.3792 8.02878 34.0407 7.71446C33.7057 7.40705 33.2912 7.21016 32.8214 7.21016Z" fill="#FF7A00"/>
<path d="M19.5881 8.933C19.5881 10.0038 19.5881 11.0711 19.5881 12.1419C19.5881 13.8378 19.5881 15.5372 19.5881 17.2332C19.5881 17.6235 19.5881 18.0138 19.5881 18.4042C20.4551 17.9068 21.322 17.4094 22.1856 16.912C21.0457 16.3144 19.9058 15.7169 18.7625 15.1193C18.6175 15.0433 18.4724 14.9639 18.3239 14.8879C18.0544 14.7532 17.7609 14.6357 17.45 14.6495C17.1322 14.6634 16.8628 14.7394 16.5761 14.8844C16.5623 14.8913 16.5485 14.8982 16.5346 14.9086C16.4587 14.9501 16.3792 14.988 16.3032 15.0295C15.64 15.3784 14.9768 15.7238 14.3137 16.0726C13.7817 16.3524 13.2498 16.6322 12.7144 16.9085C13.5814 17.4059 14.4484 17.9033 15.3119 18.4007C15.3119 17.3299 15.3119 16.2626 15.3119 15.1918C15.3119 13.4959 15.3119 11.7965 15.3119 10.1005C15.3119 9.71018 15.3119 9.31986 15.3119 8.92955C14.7351 9.50639 14.1617 10.0798 13.5848 10.6566C14.4553 10.6566 15.3223 10.6566 16.1927 10.6566C17.5778 10.6566 18.9663 10.6566 20.3514 10.6566C20.6727 10.6566 20.9904 10.6566 21.3117 10.6566C21.7538 10.6566 22.2201 10.4632 22.5344 10.1523C22.8349 9.8518 23.0594 9.36131 23.0387 8.92955C23.018 8.48397 22.8729 8.02112 22.5344 7.7068C22.1959 7.39593 21.7814 7.2025 21.3117 7.2025C20.4412 7.2025 19.5743 7.2025 18.7038 7.2025C17.3187 7.2025 15.9302 7.2025 14.5451 7.2025C14.2238 7.2025 13.9061 7.2025 13.5848 7.2025C12.6522 7.2025 11.8578 7.99349 11.8578 8.92955C11.8578 10.0003 11.8578 11.0676 11.8578 12.1384C11.8578 13.8344 11.8578 15.5338 11.8578 17.2298C11.8578 17.6201 11.8578 18.0104 11.8578 18.4007C11.8578 19.0086 12.1894 19.5855 12.7144 19.8929C13.2671 20.2176 13.9026 20.183 14.4587 19.8929C15.5848 19.3022 16.7143 18.7116 17.8403 18.1209C18.0026 18.038 18.1615 17.9517 18.3239 17.8688C17.7436 17.8688 17.1633 17.8688 16.5795 17.8688C17.7056 18.4594 18.8351 19.0501 19.9611 19.6407C20.1235 19.7236 20.2823 19.81 20.4447 19.8929C20.9973 20.183 21.6364 20.2176 22.189 19.8929C22.714 19.5855 23.0456 19.0121 23.0456 18.4007C23.0456 17.3299 23.0456 16.2626 23.0456 15.1918C23.0456 13.4959 23.0456 11.7965 23.0456 10.1005C23.0456 9.71018 23.0456 9.31986 23.0456 8.92955C23.0456 8.48742 22.8522 8.02112 22.5413 7.7068C22.2408 7.40629 21.7503 7.18177 21.3186 7.2025C20.873 7.22322 20.4101 7.3683 20.0958 7.7068C19.785 8.05221 19.5881 8.4667 19.5881 8.933Z" fill="#FF7A00"/>
</svg>
