<svg width="18" height="18" viewBox="0 0 18 18" fill="none" xmlns="http://www.w3.org/2000/svg">
<path d="M17.3459 15.6825L14.1699 12.575C15.1946 11.2939 15.7506 9.71194 15.7485 8.08334C15.7485 6.63294 15.3102 5.21512 14.4891 4.00916C13.668 2.80319 12.5008 1.86326 11.1353 1.30822C9.76979 0.753177 8.26722 0.607953 6.8176 0.890911C5.36797 1.17387 4.03641 1.8723 2.99129 2.89789C1.94617 3.92347 1.23443 5.23015 0.946086 6.65268C0.657738 8.0752 0.805728 9.54969 1.37134 10.8897C1.93696 12.2297 2.89479 13.375 4.12372 14.1808C5.35266 14.9866 6.79749 15.4167 8.27551 15.4167C9.93513 15.4187 11.5472 14.8731 12.8527 13.8675L16.0194 16.9842C16.1063 17.0701 16.2096 17.1383 16.3234 17.1848C16.4372 17.2314 16.5593 17.2553 16.6827 17.2553C16.806 17.2553 16.9281 17.2314 17.0419 17.1848C17.1557 17.1383 17.259 17.0701 17.3459 16.9842C17.4334 16.899 17.5029 16.7976 17.5504 16.6859C17.5978 16.5742 17.6222 16.4544 17.6222 16.3333C17.6222 16.2123 17.5978 16.0925 17.5504 15.9808C17.5029 15.8691 17.4334 15.7677 17.3459 15.6825ZM2.67075 8.08334C2.67075 6.99554 2.99946 5.93217 3.61532 5.0277C4.23118 4.12323 5.10652 3.41828 6.13066 3.002C7.1548 2.58572 8.28173 2.4768 9.36895 2.68902C10.4562 2.90124 11.4548 3.42506 12.2387 4.19425C13.0225 4.96344 13.5563 5.94345 13.7726 7.01034C13.9888 8.07724 13.8778 9.1831 13.4536 10.1881C13.0294 11.1931 12.311 12.0521 11.3893 12.6564C10.4677 13.2608 9.38403 13.5833 8.27551 13.5833C6.78904 13.5833 5.36344 13.0039 4.31234 11.9724C3.26125 10.941 2.67075 9.54203 2.67075 8.08334Z" fill="#8B8888"/>
</svg>
