<svg width="23" height="20" viewBox="0 0 23 20" fill="none" xmlns="http://www.w3.org/2000/svg">
<path d="M8.61453 5.92332L10.9536 3.75421V12.7985C10.9536 13.0486 11.0612 13.2885 11.2528 13.4653C11.4443 13.6422 11.7041 13.7416 11.975 13.7416C12.2459 13.7416 12.5057 13.6422 12.6973 13.4653C12.8888 13.2885 12.9965 13.0486 12.9965 12.7985V3.75421L15.3355 5.92332C15.4305 6.01172 15.5435 6.08188 15.6679 6.12976C15.7924 6.17764 15.9259 6.20229 16.0607 6.20229C16.1956 6.20229 16.3291 6.17764 16.4536 6.12976C16.578 6.08188 16.691 6.01172 16.786 5.92332C16.8817 5.83565 16.9577 5.73134 17.0095 5.61642C17.0614 5.50149 17.0881 5.37823 17.0881 5.25373C17.0881 5.12923 17.0614 5.00596 17.0095 4.89104C16.9577 4.77611 16.8817 4.6718 16.786 4.58413L12.7002 0.811763C12.6031 0.725903 12.4886 0.658599 12.3632 0.613713C12.1145 0.519387 11.8356 0.519387 11.5869 0.613713C11.4615 0.658599 11.347 0.725903 11.2498 0.811763L7.1641 4.58413C7.06886 4.67206 6.99332 4.77646 6.94178 4.89135C6.89023 5.00623 6.86371 5.12937 6.86371 5.25373C6.86371 5.37808 6.89023 5.50122 6.94178 5.61611C6.99332 5.731 7.06886 5.83539 7.1641 5.92332C7.25934 6.01126 7.3724 6.08101 7.49683 6.1286C7.62126 6.17619 7.75463 6.20068 7.88931 6.20068C8.024 6.20068 8.15736 6.17619 8.2818 6.1286C8.40623 6.08101 8.51929 6.01126 8.61453 5.92332ZM21.1679 11.8554C20.897 11.8554 20.6372 11.9547 20.4456 12.1316C20.2541 12.3085 20.1465 12.5483 20.1465 12.7985V16.5708C20.1465 16.821 20.0388 17.0608 19.8473 17.2377C19.6557 17.4146 19.3959 17.5139 19.125 17.5139H4.82503C4.55413 17.5139 4.29432 17.4146 4.10277 17.2377C3.91121 17.0608 3.8036 16.821 3.8036 16.5708V12.7985C3.8036 12.5483 3.69598 12.3085 3.50443 12.1316C3.31287 11.9547 3.05307 11.8554 2.78217 11.8554C2.51127 11.8554 2.25147 11.9547 2.05991 12.1316C1.86836 12.3085 1.76074 12.5483 1.76074 12.7985V16.5708C1.76074 17.3212 2.08359 18.0408 2.65825 18.5714C3.23292 19.102 4.01233 19.4001 4.82503 19.4001H19.125C19.9377 19.4001 20.7171 19.102 21.2918 18.5714C21.8665 18.0408 22.1893 17.3212 22.1893 16.5708V12.7985C22.1893 12.5483 22.0817 12.3085 21.8901 12.1316C21.6986 11.9547 21.4388 11.8554 21.1679 11.8554Z" fill="white"/>
</svg>
